<svg width="800" height="400" viewBox="0 0 800 400" xmlns="http://www.w3.org/2000/svg"><mask id="satori_om-id"><rect x="0" y="0" width="800" height="400" fill="#fff"/></mask><rect x="0" y="0" width="800" height="400" fill="#fff"/><clipPath id="satori_cp-id-0"><rect x="297" y="57" width="207" height="207"/></clipPath><mask id="satori_om-id-0"><rect x="297" y="57" width="207" height="207" fill="#fff"/></mask><image x="297" y="57" width="207" height="207" href="data:image/svg+xml;utf8,%3Csvg  version=%221.1%22 xmlns=%22http://www.w3.org/2000/svg%22 xlink=%22http://www.w3.org/1999/xlink%22 space=%22preserve%22 serif=%22http://www.serif.com/%22 width=%22NaN%22 height=%22NaN%22%3E%3Cg transform=%22matrix(1,0,0,1,-1368.85,-329.311)%22%3E%3Cg transform=%22matrix(0.482694,0,0,0.482694,1250.99,178.212)%22%3E%3Cpath d=%22M244.162,511.555C252.137,400.653 344.754,313.033 457.674,313.033C570.593,313.033 663.21,400.653 671.185,511.555L551.688,511.555C544.257,466.353 504.966,431.823 457.674,431.823C410.381,431.823 371.09,466.353 363.659,511.555L244.162,511.555ZM671.185,542.647C663.21,653.549 570.593,741.169 457.674,741.169C344.754,741.169 252.137,653.549 244.162,542.647L363.659,542.647C371.09,587.849 410.381,622.38 457.674,622.38C504.966,622.38 544.257,587.849 551.688,542.647L671.185,542.647ZM457.674,463.688C492.672,463.688 521.087,492.102 521.087,527.101C521.087,562.1 492.672,590.515 457.674,590.515C422.675,590.515 394.26,562.1 394.26,527.101C394.26,492.102 422.675,463.688 457.674,463.688Z%22 style=%220:f;1:i;2:l;3:l;4::;5:r;6:g;7:b;8:(;9:2;10:3;11:5;12:,;13:2;14:3;15:5;16:,;17:2;18:3;19:5;20:);21:;;22:f;23:i;24:l;25:l;26:-;27:o;28:p;29:a;30:c;31:i;32:t;33:y;34::;35:0;36:.;37:2;38:4;39:;%22%3E%3C/path%3E%3C/g%3E%3C/g%3E%3C/svg%3E" preserveAspectRatio="none" clip-path="url(#satori_cp-id-0)" mask="url(#satori_om-id-0)"/><mask id="satori_om-id-0-0"><rect x="297" y="57" width="0" height="207" fill="#fff"/></mask><mask id="satori_om-id-0-0-0"><rect x="297" y="57" width="0" height="207" fill="#fff"/></mask><mask id="satori_om-id-0-0-0-0"><rect x="297" y="57" width="0" height="207" fill="#fff"/></mask><mask id="satori_om-id-1"><rect x="296" y="304" width="208" height="39" fill="#fff"/></mask><path fill="black" d="M302.9 334.0L298.0 334.0L298.0 310.7L307.2 310.7Q309.9 310.7 311.7 311.7Q313.6 312.7 314.6 314.5Q315.5 316.2 315.5 318.6L315.5 318.6Q315.5 320.9 314.5 322.7Q313.5 324.4 311.7 325.4Q309.8 326.4 307.1 326.4L307.1 326.4L301.2 326.4L301.2 322.5L306.3 322.5Q307.7 322.5 308.6 322.0Q309.6 321.5 310.0 320.6Q310.5 319.7 310.5 318.6L310.5 318.6Q310.5 317.4 310.0 316.5Q309.6 315.7 308.6 315.2Q307.7 314.7 306.3 314.7L306.3 314.7L302.9 314.7L302.9 334.0ZM326.3 334.3L326.3 334.3Q323.6 334.3 321.7 333.2Q319.8 332.0 318.7 330.0Q317.7 328.0 317.7 325.3L317.7 325.3Q317.7 322.6 318.7 320.6Q319.8 318.5 321.7 317.4Q323.6 316.3 326.3 316.3L326.3 316.3Q328.9 316.3 330.8 317.4Q332.8 318.5 333.8 320.6Q334.8 322.6 334.8 325.3L334.8 325.3Q334.8 328.0 333.8 330.0Q332.8 332.0 330.8 333.2Q328.9 334.3 326.3 334.3ZM326.3 330.5L326.3 330.5Q327.5 330.5 328.3 329.9Q329.1 329.2 329.5 328.0Q329.9 326.8 329.9 325.3L329.9 325.3Q329.9 323.7 329.5 322.5Q329.1 321.3 328.3 320.7Q327.5 320.0 326.3 320.0L326.3 320.0Q325.1 320.0 324.2 320.7Q323.4 321.3 323.0 322.5Q322.6 323.7 322.6 325.3L322.6 325.3Q322.6 326.8 323.0 328.0Q323.4 329.2 324.2 329.9Q325.1 330.5 326.3 330.5ZM345.6 325.3L342.4 328.9L342.4 323.1L343.1 323.1L348.7 316.5L354.3 316.5L346.7 325.3L345.6 325.3ZM342.8 334.0L338 334.0L338 310.7L342.8 310.7L342.8 334.0ZM354.6 334.0L348.9 334.0L343.8 326.3L347 322.9L354.6 334.0ZM363.8 334.3L363.8 334.3Q361.1 334.3 359.2 333.2Q357.3 332.1 356.2 330.1Q355.2 328.1 355.2 325.3L355.2 325.3Q355.2 322.6 356.2 320.6Q357.3 318.5 359.2 317.4Q361.1 316.3 363.6 316.3L363.6 316.3Q365.4 316.3 366.9 316.8Q368.4 317.4 369.5 318.5Q370.6 319.6 371.2 321.2Q371.9 322.9 371.9 325.1L371.9 325.1L371.9 326.5L357.1 326.5L357.1 323.5L367.3 323.5Q367.3 322.4 366.8 321.6Q366.4 320.8 365.6 320.3Q364.8 319.9 363.7 319.9L363.7 319.9Q362.6 319.9 361.8 320.4Q360.9 320.9 360.5 321.7Q360.0 322.6 360.0 323.6L360.0 323.6L360.0 326.5Q360.0 327.8 360.4 328.7Q360.9 329.7 361.8 330.2Q362.7 330.7 363.9 330.7L363.9 330.7Q364.7 330.7 365.4 330.5Q366.1 330.2 366.5 329.8Q367.0 329.3 367.3 328.7L367.3 328.7L371.8 329.0Q371.4 330.6 370.4 331.8Q369.3 333.0 367.7 333.6Q366 334.3 363.8 334.3ZM381.4 334.2L381.4 334.2Q379.5 334.2 377.8 333.2Q376.2 332.2 375.3 330.2Q374.4 328.2 374.4 325.2L374.4 325.2Q374.4 322.2 375.3 320.3Q376.3 318.3 377.9 317.3Q379.5 316.3 381.4 316.3L381.4 316.3Q382.9 316.3 383.9 316.8Q384.9 317.3 385.5 318.0Q386.1 318.7 386.4 319.4L386.4 319.4L386.5 319.4L386.5 310.7L391.4 310.7L391.4 334.0L386.6 334.0L386.6 331.2L386.4 331.2Q386.1 331.9 385.4 332.6Q384.8 333.3 383.8 333.8Q382.9 334.2 381.4 334.2ZM383.0 330.4L383.0 330.4Q384.1 330.4 385.0 329.7Q385.8 329.1 386.2 327.9Q386.6 326.8 386.6 325.2L386.6 325.2Q386.6 323.7 386.2 322.5Q385.8 321.4 385.0 320.7Q384.1 320.1 383.0 320.1L383.0 320.1Q381.8 320.1 381.0 320.8Q380.1 321.4 379.7 322.6Q379.3 323.7 379.3 325.2L379.3 325.2Q379.3 326.7 379.7 327.9Q380.2 329.1 381.0 329.7Q381.8 330.4 383.0 330.4ZM403.3 334.3L403.3 334.3Q400.6 334.3 398.7 333.2Q396.7 332.1 395.7 330.1Q394.6 328.1 394.6 325.3L394.6 325.3Q394.6 322.6 395.7 320.6Q396.7 318.5 398.6 317.4Q400.5 316.3 403.1 316.3L403.1 316.3Q404.8 316.3 406.3 316.8Q407.8 317.4 408.9 318.5Q410.1 319.6 410.7 321.2Q411.3 322.9 411.3 325.1L411.3 325.1L411.3 326.5L396.6 326.5L396.6 323.5L406.7 323.5Q406.7 322.4 406.3 321.6Q405.8 320.8 405.0 320.3Q404.2 319.9 403.2 319.9L403.2 319.9Q402.1 319.9 401.2 320.4Q400.4 320.9 399.9 321.7Q399.4 322.6 399.4 323.6L399.4 323.6L399.4 326.5Q399.4 327.8 399.9 328.7Q400.4 329.7 401.3 330.2Q402.2 330.7 403.4 330.7L403.4 330.7Q404.2 330.7 404.9 330.5Q405.5 330.2 406.0 329.8Q406.5 329.3 406.7 328.7L406.7 328.7L411.2 329.0Q410.9 330.6 409.8 331.8Q408.8 333.0 407.1 333.6Q405.5 334.3 403.3 334.3ZM413.2 316.5L418.2 316.5L421.4 322.6L424.7 316.5L429.7 316.5L424.6 325.2L429.8 334.0L424.9 334.0L421.4 327.9L418.0 334.0L413.0 334.0L418.2 325.2L413.2 316.5Z M451.2 316.0L445.4 334.0L440.1 334.0L448.1 310.7L454.5 310.7L462.5 334.0L457.2 334.0L451.4 316.0L451.2 316.0ZM445.0 328.6L445.0 324.8L457.5 324.8L457.5 328.6L445.0 328.6ZM470.0 340.5L465.2 340.5L465.2 316.5L470.0 316.5L470.0 319.4L470.2 319.4Q470.5 318.7 471.1 318.0Q471.7 317.3 472.7 316.8Q473.7 316.3 475.2 316.3L475.2 316.3Q477.1 316.3 478.7 317.3Q480.3 318.3 481.3 320.3Q482.2 322.2 482.2 325.2L482.2 325.2Q482.2 328.2 481.3 330.2Q480.4 332.2 478.7 333.2Q477.1 334.2 475.1 334.2L475.1 334.2Q473.7 334.2 472.8 333.8Q471.8 333.3 471.1 332.6Q470.5 331.9 470.2 331.2L470.2 331.2L470.0 331.2L470.0 340.5ZM469.9 325.2L469.9 325.2Q469.9 326.8 470.4 327.9Q470.8 329.1 471.6 329.7Q472.4 330.4 473.6 330.4L473.6 330.4Q474.8 330.4 475.6 329.7Q476.4 329.1 476.9 327.9Q477.3 326.7 477.3 325.2L477.3 325.2Q477.3 323.7 476.9 322.6Q476.4 321.4 475.6 320.8Q474.8 320.1 473.6 320.1L473.6 320.1Q472.4 320.1 471.6 320.7Q470.8 321.4 470.4 322.5Q469.9 323.7 469.9 325.2ZM490.3 340.5L485.4 340.5L485.4 316.5L490.2 316.5L490.2 319.4L490.4 319.4Q490.8 318.7 491.4 318.0Q492.0 317.3 492.9 316.8Q493.9 316.3 495.4 316.3L495.4 316.3Q497.3 316.3 498.9 317.3Q500.5 318.3 501.5 320.3Q502.5 322.2 502.5 325.2L502.5 325.2Q502.5 328.2 501.5 330.2Q500.6 332.2 499.0 333.2Q497.4 334.2 495.4 334.2L495.4 334.2Q494.0 334.2 493.0 333.8Q492.0 333.3 491.4 332.6Q490.8 331.9 490.4 331.2L490.4 331.2L490.3 331.2L490.3 340.5ZM490.2 325.2L490.2 325.2Q490.2 326.8 490.6 327.9Q491.0 329.1 491.9 329.7Q492.7 330.4 493.9 330.4L493.9 330.4Q495.0 330.4 495.9 329.7Q496.7 329.1 497.1 327.9Q497.5 326.7 497.5 325.2L497.5 325.2Q497.5 323.7 497.1 322.6Q496.7 321.4 495.9 320.8Q495.0 320.1 493.9 320.1L493.9 320.1Q492.7 320.1 491.9 320.7Q491.0 321.4 490.6 322.5Q490.2 323.7 490.2 325.2Z "/></svg>